<?xml version="1.0" encoding="UTF-8"?>
<svg version="1.1" xmlns="http://www.w3.org/2000/svg" width="110" height="89">
<path d="M0 0 C36.3 0 72.6 0 110 0 C110 29.37 110 58.74 110 89 C73.7 89 37.4 89 0 89 C0 59.63 0 30.26 0 0 Z " fill="#7CBE3E" transform="translate(0,0)"/>
<path d="M0 0 C36.3 0 72.6 0 110 0 C110 29.37 110 58.74 110 89 C73.7 89 37.4 89 0 89 C0 59.63 0 30.26 0 0 Z M27.8046875 1.12890625 C21.59467733 1.68379309 17.32349499 3.63283335 13 8 C11.85528566 8.87646341 10.70940776 9.75140879 9.5625 10.625 C4.58377234 14.83534052 2.25096304 20.68672857 1 27 C0.29113327 35.57612533 1.11380572 42.30564747 5 50 C6.76515437 53.53030873 6.41070388 57.7716168 6.60546875 61.67773438 C6.50193434 65.13254014 6.50193434 65.13254014 8 68 C13.29820367 68.66792535 13.29820367 68.66792535 17.7578125 66.484375 C18.16773437 65.99453125 18.57765625 65.5046875 19 65 C19.07347656 66.15628906 19.07347656 66.15628906 19.1484375 67.3359375 C19.22320313 68.33882813 19.29796875 69.34171875 19.375 70.375 C19.44460937 71.37273437 19.51421875 72.37046875 19.5859375 73.3984375 C19.76363964 76.15508879 19.76363964 76.15508879 22 78 C25.05932595 78.28206285 25.05932595 78.28206285 28.5 78.1875 C29.6653125 78.18105469 30.830625 78.17460938 32.03125 78.16796875 C34.92882002 78.20057939 34.92882002 78.20057939 37 77 C37 74.36 37 71.72 37 69 C41.95 68.505 41.95 68.505 47 68 C47.33 69.98 47.66 71.96 48 74 C48.33 73.34 48.66 72.68 49 72 C52.63 72 56.26 72 60 72 C59.67 68.7 59.34 65.4 59 62 C60.11375 62.495 61.2275 62.99 62.375 63.5 C65.65415749 65.1274506 65.65415749 65.1274506 68 65 C68 65.66 68 66.32 68 67 C78.74411818 68.53223679 86.39993513 67.99273508 95.25 61.375 C99.82025978 57.48021887 103.08963826 53.23078529 106 48 C106.34691895 47.38962891 106.69383789 46.77925781 107.05126953 46.15039062 C108.73373704 42.33691307 108.36900871 38.36002791 108.375 34.25 C108.41173828 32.94675781 108.41173828 32.94675781 108.44921875 31.6171875 C108.48160304 24.42787615 106.76014251 19.35372155 102.18359375 13.79296875 C101.60738281 13.26316406 101.03117187 12.73335937 100.4375 12.1875 C99.85871094 11.64480469 99.27992187 11.10210937 98.68359375 10.54296875 C97.85021484 9.77919922 97.85021484 9.77919922 97 9 C96.49855469 8.484375 95.99710937 7.96875 95.48046875 7.4375 C90.12679092 2.23920596 84.59310581 1.59153879 77.5 1.5625 C71.51004059 1.65170941 66.23912926 1.83469274 61 5 C59.50985808 7.36493357 59.50985808 7.36493357 60 10 C61.9808355 12.66650933 63.3676187 13.81423198 66.56640625 14.75390625 C69 16 69 16 69.92578125 18.546875 C71.33173408 30.19214082 72.5695259 40.87152948 67.875 51.890625 C66.87228086 53.9272849 66.87228086 53.9272849 67 56 C66.34 55.67 65.68 55.34 65 55 C66.00911458 53.30729167 67.01822917 51.61458333 68.02734375 49.921875 C72.57902971 40.92818226 70.32769088 27.62880181 68.14453125 18.2578125 C66.61788646 15.24620606 65.12501412 15.0729059 62 14 C60.15625 12.37890625 60.15625 12.37890625 58.5 10.5625 C52.67034497 4.53311375 45.8170936 1.50011212 37.41015625 0.77734375 C34.19205051 0.74263383 31.01520487 0.94038833 27.8046875 1.12890625 Z " fill="#E8ECE6" transform="translate(0,0)"/>
<path d="M0 0 C5.96578183 4.65375838 11.66489332 11.3813987 14.078125 18.62109375 C15.95125531 38.37194879 15.95125531 38.37194879 10.5546875 45.87890625 C10.06742188 46.45382813 9.58015625 47.02875 9.078125 47.62109375 C8.40910156 48.54535156 8.40910156 48.54535156 7.7265625 49.48828125 C2.94382391 55.71385719 -3.86925251 60.85701693 -11.66015625 62.453125 C-16.43593815 62.8078031 -21.18338314 62.20550775 -25.921875 61.62109375 C-25.921875 60.96109375 -25.921875 60.30109375 -25.921875 59.62109375 C-27.035625 59.33234375 -28.149375 59.04359375 -29.296875 58.74609375 C-32.921875 57.62109375 -32.921875 57.62109375 -34.921875 55.62109375 C-29.171875 50.62109375 -29.171875 50.62109375 -26.921875 50.62109375 C-26.61443359 49.59048828 -26.61443359 49.59048828 -26.30078125 48.5390625 C-26.03136719 47.63800781 -25.76195313 46.73695312 -25.484375 45.80859375 C-25.21753906 44.91527344 -24.95070313 44.02195313 -24.67578125 43.1015625 C-24.11799627 41.2663632 -23.52842925 39.44075649 -22.921875 37.62109375 C-22.41145117 28.8133151 -22.19966343 19.09445653 -24.921875 10.62109375 C-27.70846856 8.35095915 -27.70846856 8.35095915 -30.921875 7.62109375 C-32.859375 6.24609375 -32.859375 6.24609375 -33.921875 4.62109375 C-34.109375 2.12109375 -34.109375 2.12109375 -32.921875 -0.37890625 C-23.88114377 -5.8410147 -9.00308559 -5.40491363 0 0 Z " fill="#F8AF17" transform="translate(93.921875,5.37890625)"/>
<path d="M0 0 C0.33 0 0.66 0 1 0 C1 15.51 1 31.02 1 47 C-19.79 47 -40.58 47 -62 47 C-62.66 45.35 -63.32 43.7 -64 42 C-64.66 41.01 -65.32 40.02 -66 39 C-66 37.68 -66 36.36 -66 35 C-66.99 35 -67.98 35 -69 35 C-69 34.01 -69 33.02 -69 32 C-68.34 32 -67.68 32 -67 32 C-67.33 30.02 -67.66 28.04 -68 26 C-66.02 26 -64.04 26 -62 26 C-61.34 27.32 -60.68 28.64 -60 30 C-56.37 30 -52.74 30 -49 30 C-49.495 25.05 -49.495 25.05 -50 20 C-47.03 20.99 -44.06 21.98 -41 23 C-41 23.66 -41 24.32 -41 25 C-29.67391647 25.52543686 -20.95068104 24.46087747 -12.04296875 17.03515625 C-7.67046856 12.6793769 -4.67817323 7.51828252 -2 2 C-1.34 2 -0.68 2 0 2 C0 1.34 0 0.68 0 0 Z " fill="#EFF0F0" transform="translate(109,42)"/>
<path d="M0 0 C3.58697705 2.7981118 6.37333159 5.9811324 9.078125 9.62109375 C9.861875 10.63171875 10.645625 11.64234375 11.453125 12.68359375 C13.70869143 16.76096383 14.46834033 20.44703689 13.640625 25.05859375 C13.3621875 25.83203125 13.3621875 25.83203125 13.078125 26.62109375 C11.4075 26.83765625 11.4075 26.83765625 9.703125 27.05859375 C6.25670453 27.4048141 6.25670453 27.4048141 4.078125 28.62109375 C4.078125 27.96109375 4.078125 27.30109375 4.078125 26.62109375 C3.335625 26.66234375 2.593125 26.70359375 1.828125 26.74609375 C-1.05246465 26.61515786 -2.42532508 25.95258704 -4.921875 24.62109375 C-5.911875 24.62109375 -6.901875 24.62109375 -7.921875 24.62109375 C-8.004375 23.36296875 -8.086875 22.10484375 -8.171875 20.80859375 C-8.54147326 17.9866611 -8.71885271 16.87096734 -10.546875 14.62109375 C-14.91417597 12.78223018 -19.46442662 13.19471027 -23.921875 14.62109375 C-24.14875 13.83734375 -24.375625 13.05359375 -24.609375 12.24609375 C-26.26503847 8.93476681 -27.51218906 8.78537675 -30.921875 7.62109375 C-32.796875 6.30859375 -32.796875 6.30859375 -33.921875 4.62109375 C-34.109375 2.12109375 -34.109375 2.12109375 -32.921875 -0.37890625 C-23.88114377 -5.8410147 -9.00308559 -5.40491363 0 0 Z " fill="#FDE504" transform="translate(93.921875,5.37890625)"/>
<path d="M0 0 C0.33 0 0.66 0 1 0 C1.33 4.95 1.66 9.9 2 15 C5.3 15 8.6 15 12 15 C12.33 14.01 12.66 13.02 13 12 C15.13735265 14.13735265 14.50995949 18.63801008 14.71875 21.53125 C14.73385265 23.9413605 14.73385265 23.9413605 16 25 C18.53049402 25.07313567 21.03304837 25.09247527 23.5625 25.0625 C24.27341797 25.05798828 24.98433594 25.05347656 25.71679688 25.04882812 C27.47790013 25.03700864 29.23896036 25.01907263 31 25 C31 22.36 31 19.72 31 17 C32.32 17 33.64 17 35 17 C35.495 19.475 35.495 19.475 36 22 C35.34 22 34.68 22 34 22 C34 22.99 34 23.98 34 25 C34.99 25 35.98 25 37 25 C37.268125 25.94875 37.53625 26.8975 37.8125 27.875 C38.74986588 31.25267273 38.74986588 31.25267273 42 33 C41.34 33 40.68 33 40 33 C40.495 34.98 40.495 34.98 41 37 C25.49 37 9.98 37 -6 37 C-6 28.75 -6 20.5 -6 12 C-4.02 12 -2.04 12 0 12 C0 8.04 0 4.08 0 0 Z " fill="#E7E9EA" transform="translate(6,52)"/>
<path d="M0 0 C0.66 0 1.32 0 2 0 C2.2475 0.639375 2.495 1.27875 2.75 1.9375 C3.1625 2.618125 3.575 3.29875 4 4 C4.66 4.12375 5.32 4.2475 6 4.375 C6.66 4.58125 7.32 4.7875 8 5 C9.125 8 9.125 8 10 11 C10.66 11.33 11.32 11.66 12 12 C12 12.99 12 13.98 12 15 C13.62414378 15.19477739 15.24936423 15.38059458 16.875 15.5625 C17.77992187 15.66691406 18.68484375 15.77132812 19.6171875 15.87890625 C22.01653057 16.19674852 22.01653057 16.19674852 24 15 C24.33 16.65 24.66 18.3 25 20 C25.66 20 26.32 20 27 20 C26.67 19.01 26.34 18.02 26 17 C38.44497608 15.48165869 38.44497608 15.48165869 43 17 C42.90460937 16.37351562 42.80921875 15.74703125 42.7109375 15.1015625 C42.60007813 14.28429688 42.48921875 13.46703125 42.375 12.625 C42.25898437 11.81289063 42.14296875 11.00078125 42.0234375 10.1640625 C42.01183594 9.09285156 42.01183594 9.09285156 42 8 C42.66 7.34 43.32 6.68 44 6 C44 6.66 44 7.32 44 8 C44.99 7.34 45.98 6.68 47 6 C50.1875 5.875 50.1875 5.875 53 6 C53 6.99 53 7.98 53 9 C54.32 8.67 55.64 8.34 57 8 C56.125 11.875 56.125 11.875 55 13 C54.92773498 14.85287502 54.9161878 16.70833878 54.9375 18.5625 C54.958125 20.356875 54.97875 22.15125 55 24 C51.37 24 47.74 24 44 24 C43.67 24.66 43.34 25.32 43 26 C42.505 23.03 42.505 23.03 42 20 C38.7 20.33 35.4 20.66 32 21 C32 23.64 32 26.28 32 29 C29.15161879 30.4241906 26.67212092 30.16995508 23.5 30.1875 C22.3346875 30.20167969 21.169375 30.21585938 19.96875 30.23046875 C17 30 17 30 15 28 C14.5859375 25.3984375 14.5859375 25.3984375 14.375 22.375 C14.30023438 21.37210938 14.22546875 20.36921875 14.1484375 19.3359375 C14.09945313 18.56507812 14.05046875 17.79421875 14 17 C13.59007812 17.48984375 13.18015625 17.9796875 12.7578125 18.484375 C9.73929836 21.08700497 6.85710898 20.24884574 3 20 C1.04372175 18.04372175 1.63568047 14.37347081 1.5 11.6875 C1.23874736 5.77184674 1.23874736 5.77184674 0 0 Z " fill="#2AA444" transform="translate(5,48)"/>
<path d="M0 0 C19.14 0 38.28 0 58 0 C58.04125 6.88875 58.0825 13.7775 58.125 20.875 C58.14320801 23.0494873 58.16141602 25.22397461 58.18017578 27.46435547 C58.1860153 29.18196363 58.19111214 30.89957455 58.1953125 32.6171875 C58.20554443 33.51381104 58.21577637 34.41043457 58.22631836 35.33422852 C58.22656006 36.18670166 58.22680176 37.0391748 58.22705078 37.91748047 C58.231492 38.65916473 58.23593323 39.400849 58.24050903 40.16500854 C58 42 58 42 56 44 C55.98598145 43.15405273 55.98598145 43.15405273 55.97167969 42.29101562 C55.91742514 39.69318008 55.83389317 37.09704081 55.75 34.5 C55.73582031 33.613125 55.72164062 32.72625 55.70703125 31.8125 C55.44155912 24.59165819 53.81750898 19.28709381 49.078125 13.7578125 C48.47484375 13.21898437 47.8715625 12.68015625 47.25 12.125 C46.13477601 11.11754975 45.04201758 10.0829958 44 9 C44 8.34 44 7.68 44 7 C42.63875 6.566875 42.63875 6.566875 41.25 6.125 C38 5 38 5 36.30078125 3.94921875 C32.90625782 2.54876171 29.55185511 2.6620999 25.9375 2.6875 C25.18251221 2.68878906 24.42752441 2.69007812 23.6496582 2.69140625 C18.2081399 2.78421543 13.37692286 3.588045 8.19921875 5.34375 C6 6 6 6 2 6 C2 5.01 2 4.02 2 3 C1.01 2.67 0.02 2.34 -1 2 C-0.67 1.34 -0.34 0.68 0 0 Z " fill="#F7F5EA" transform="translate(52,0)"/>
<path d="M0 0 C3.58697705 2.7981118 6.37333159 5.9811324 9.078125 9.62109375 C9.861875 10.63171875 10.645625 11.64234375 11.453125 12.68359375 C13.70869143 16.76096383 14.46834033 20.44703689 13.640625 25.05859375 C13.3621875 25.83203125 13.3621875 25.83203125 13.078125 26.62109375 C11.758125 26.62109375 10.438125 26.62109375 9.078125 26.62109375 C9.00335938 26.06421875 8.92859375 25.50734375 8.8515625 24.93359375 C7.49206201 17.04315954 3.96333288 11.58809174 -2.421875 6.74609375 C-9.23565476 2.33717743 -16.16465096 1.69619675 -24.0859375 2.96875 C-26.19528843 3.43709712 -26.19528843 3.43709712 -28.921875 4.62109375 C-29.251875 5.61109375 -29.581875 6.60109375 -29.921875 7.62109375 C-31.241875 6.63109375 -32.561875 5.64109375 -33.921875 4.62109375 C-33.921875 2.30859375 -33.921875 2.30859375 -32.921875 -0.37890625 C-23.88114377 -5.8410147 -9.00308559 -5.40491363 0 0 Z " fill="#FBE61E" transform="translate(93.921875,5.37890625)"/>
<path d="M0 0 C0.66 0 1.32 0 2 0 C3.94553661 3.37226345 5 6.07955619 5 10 C3.27502439 13.52380339 1.20823004 16.76126261 -1 20 C-1.33 19.34 -1.66 18.68 -2 18 C-2.598125 18.515625 -3.19625 19.03125 -3.8125 19.5625 C-4.534375 20.036875 -5.25625 20.51125 -6 21 C-6.99 20.67 -7.98 20.34 -9 20 C-8.01 19.67 -7.02 19.34 -6 19 C-6 18.01 -6 17.02 -6 16 C-8.97 16.66 -11.94 17.32 -15 18 C-16.35439668 15.29120665 -16.06501451 12.99066732 -16 10 C-16.66 10 -17.32 10 -18 10 C-18 11.98 -18 13.96 -18 16 C-18.99 16 -19.98 16 -21 16 C-21 13.69 -21 11.38 -21 9 C-22.65 11.31 -24.3 13.62 -26 16 C-26.66 15.34 -27.32 14.68 -28 14 C-27.34 14 -26.68 14 -26 14 C-25.979375 13.0925 -25.95875 12.185 -25.9375 11.25 C-25 8 -25 8 -22.125 5.625 C-17.28737428 3.24616752 -12.25794595 3.21414367 -7 4 C-3.8125 5.5625 -3.8125 5.5625 -2 8 C-1.6875 11.75 -1.6875 11.75 -2 15 C-0.9838308 10.37078475 -1.16203269 6.65537393 -2 2 C-1.34 2 -0.68 2 0 2 C0 1.34 0 0.68 0 0 Z " fill="#68B440" transform="translate(64,38)"/>
<path d="M0 0 C1.98 0 3.96 0 6 0 C6.66 2.64 7.32 5.28 8 8 C9.19496094 8.07347656 9.19496094 8.07347656 10.4140625 8.1484375 C21.78814229 8.95098814 21.78814229 8.95098814 26 11 C26.33 11.99 26.66 12.98 27 14 C27.66 14 28.32 14 29 14 C29 15.65 29 17.3 29 19 C23.44122382 20.62300034 17.70973544 20.87628096 12 20 C9.02992327 18.07373631 7.17557041 15.74743463 5 13 C4.01 12.34 3.02 11.68 2 11 C2 10.34 2 9.68 2 9 C1.01 9 0.02 9 -1 9 C-1 8.01 -1 7.02 -1 6 C-0.34 6 0.32 6 1 6 C0.67 4.02 0.34 2.04 0 0 Z " fill="#F3E73C" transform="translate(41,68)"/>
<path d="M0 0 C0.33 0.66 0.66 1.32 1 2 C1.99 1.34 2.98 0.68 4 0 C7.1875 -0.125 7.1875 -0.125 10 0 C10 0.99 10 1.98 10 3 C11.32 2.67 12.64 2.34 14 2 C13.125 5.875 13.125 5.875 12 7 C11.92773498 8.85287502 11.9161878 10.70833878 11.9375 12.5625 C11.958125 14.356875 11.97875 16.15125 12 18 C8.37 18 4.74 18 1 18 C0.67 18.66 0.34 19.32 0 20 C-0.33 18.02 -0.66 16.04 -1 14 C-4.3 14.33 -7.6 14.66 -11 15 C-11 17.64 -11 20.28 -11 23 C-11.33 23 -11.66 23 -12 23 C-12 19.04 -12 15.08 -12 11 C-7.33041073 10.06608215 -4.58533383 10.19082344 0 11 C-0.08378906 10.37351562 -0.16757812 9.74703125 -0.25390625 9.1015625 C-0.35574219 8.28429688 -0.45757812 7.46703125 -0.5625 6.625 C-0.66691406 5.81289063 -0.77132812 5.00078125 -0.87890625 4.1640625 C-1 2 -1 2 0 0 Z " fill="#51AF42" transform="translate(48,54)"/>
<path d="M0 0 C2.34566877 2.0885373 4.52581271 4.33440646 6.74609375 6.5546875 C8.06609375 7.2146875 9.38609375 7.8746875 10.74609375 8.5546875 C7.11609375 8.8846875 3.48609375 9.2146875 -0.25390625 9.5546875 C0.07609375 7.9046875 0.40609375 6.2546875 0.74609375 4.5546875 C0.25109375 3.0696875 0.25109375 3.0696875 -0.25390625 1.5546875 C-3.6320805 0.71014394 -5.92855868 0.44623831 -9.25390625 1.5546875 C-9.25390625 -0.0953125 -9.25390625 -1.7453125 -9.25390625 -3.4453125 C-18.88089423 -5.62263128 -26.43649886 -6.45520306 -35.25390625 -1.4453125 C-36.12015625 -1.1771875 -36.98640625 -0.9090625 -37.87890625 -0.6328125 C-41.17012561 1.01279718 -42.28435541 3.50506039 -44.25390625 6.5546875 C-46.50390625 7.9296875 -46.50390625 7.9296875 -48.25390625 8.5546875 C-48.25390625 9.8746875 -48.25390625 11.1946875 -48.25390625 12.5546875 C-48.91390625 12.5546875 -49.57390625 12.5546875 -50.25390625 12.5546875 C-50.25390625 13.5446875 -50.25390625 14.5346875 -50.25390625 15.5546875 C-50.91390625 15.8846875 -51.57390625 16.2146875 -52.25390625 16.5546875 C-51.92390625 17.5446875 -51.59390625 18.5346875 -51.25390625 19.5546875 C-51.21436391 21.88768575 -51.20988893 24.22176939 -51.25390625 26.5546875 C-52.24390625 27.0496875 -52.24390625 27.0496875 -53.25390625 27.5546875 C-54.38741159 29.57138577 -54.38741159 29.57138577 -55.25390625 31.5546875 C-55.85503884 21.05156522 -55.09211794 11.9097831 -48.25390625 3.4921875 C-46.13144651 1.13325806 -44.10418962 -0.08441901 -41.25390625 -1.4453125 C-40.75890625 -1.9403125 -40.26390625 -2.4353125 -39.75390625 -2.9453125 C-29.98215778 -12.71706097 -9.37676414 -7.58442492 0 0 Z " fill="#ADCC5E" transform="translate(56.25390625,8.4453125)"/>
<path d="M0 0 C2.97 0.99 5.94 1.98 9 3 C9 3.66 9 4.32 9 5 C18.55751044 5.44338966 26.46704803 4.46040671 35 0 C36.125 3.75 36.125 3.75 35 6 C28.09527293 9.55462859 20.52370951 9.53428746 12.9375 9.6875 C11.20983398 9.73874023 11.20983398 9.73874023 9.44726562 9.79101562 C6.6316079 9.87279821 3.81623429 9.94217375 1 10 C0.67 6.7 0.34 3.4 0 0 Z " fill="#D0D2D0" transform="translate(59,62)"/>
<path d="M0 0 C0.66 0 1.32 0 2 0 C2.2475 0.639375 2.495 1.27875 2.75 1.9375 C3.1625 2.618125 3.575 3.29875 4 4 C4.66 4.12375 5.32 4.2475 6 4.375 C6.66 4.58125 7.32 4.7875 8 5 C9.125 8 9.125 8 10 11 C10.66 11.33 11.32 11.66 12 12 C12 12.99 12 13.98 12 15 C14.97 15.495 14.97 15.495 18 16 C17.34 16.33 16.68 16.66 16 17 C16 20.63 16 24.26 16 28 C15.67 28 15.34 28 15 28 C14.67 24.37 14.34 20.74 14 17 C13.01 17.99 12.02 18.98 11 20 C8.24114506 20.45086345 5.81982959 20.18192449 3 20 C1.04372175 18.04372175 1.63568047 14.37347081 1.5 11.6875 C1.23874736 5.77184674 1.23874736 5.77184674 0 0 Z " fill="#51AC50" transform="translate(5,48)"/>
<path d="M0 0 C0.99 0.33 1.98 0.66 3 1 C3.5513099 4.74890735 3.06375655 5.91074083 0.8125 9.0625 C-0.10953207 10.05624568 -1.0467507 11.03615904 -2 12 C-3.0828125 13.1446875 -3.0828125 13.1446875 -4.1875 14.3125 C-8.2726434 16.76358604 -12.30926723 16.81783562 -17 17 C-17.33 15.35 -17.66 13.7 -18 12 C-12.25 9 -12.25 9 -10 9 C-10 8.34 -10 7.68 -10 7 C-9.36191406 6.66226563 -8.72382812 6.32453125 -8.06640625 5.9765625 C-7.24011719 5.53054687 -6.41382812 5.08453125 -5.5625 4.625 C-4.32693359 3.96371094 -4.32693359 3.96371094 -3.06640625 3.2890625 C-0.86533422 2.16581441 -0.86533422 2.16581441 0 0 Z " fill="#F7A119" transform="translate(99,48)"/>
<path d="M0 0 C0 0.33 0 0.66 0 1 C-1.98 1 -3.96 1 -6 1 C-6.33 2.98 -6.66 4.96 -7 7 C-14.55137932 7.30071865 -21.58856436 6.42625566 -29 5 C-29 3.68 -29 2.36 -29 1 C-19.29056184 0.16220564 -9.73944972 -0.12276617 0 0 Z " fill="#EBEDEE" transform="translate(78,71)"/>
<path d="M0 0 C3.79345287 0.03368963 6.71253216 0.98751072 10.3125 2.1875 C12.98707505 2.31109404 15.63340254 2.23290843 18.3125 2.1875 C19.3125 3.1875 19.3125 3.1875 19.3125 8.1875 C15.6825 8.1875 12.0525 8.1875 8.3125 8.1875 C7.9825 8.8475 7.6525 9.5075 7.3125 10.1875 C6.9825 8.2075 6.6525 6.2275 6.3125 4.1875 C3.0125 4.5175 -0.2875 4.8475 -3.6875 5.1875 C-3.6875 7.8275 -3.6875 10.4675 -3.6875 13.1875 C-4.0175 13.1875 -4.3475 13.1875 -4.6875 13.1875 C-4.71436553 11.20840602 -4.73383375 9.22921029 -4.75 7.25 C-4.76160156 6.14785156 -4.77320313 5.04570313 -4.78515625 3.91015625 C-4.63552628 -0.26152745 -4.33364046 0.2203546 0 0 Z " fill="#31A644" transform="translate(40.6875,63.8125)"/>
<path d="M0 0 C0.66 0.33 1.32 0.66 2 1 C2.34342449 2.33076989 2.67619874 3.66431979 3 5 C5.22922955 7.22922955 7.09135278 7.88128953 10 9 C13.95559707 12.95559707 13.23409469 24.66958432 13.4375 30 C13.34064026 37.19183554 11.55368526 43.72349111 8 50 C6.515 50.495 6.515 50.495 5 51 C5.268125 50.34 5.53625 49.68 5.8125 49 C6.204375 48.01 6.59625 47.02 7 46 C7.53625 44.906875 8.0725 43.81375 8.625 42.6875 C12.03583222 33.58040484 10.47613326 22.13074139 8 13 C8 12.01 8 11.02 8 10 C7.278125 9.95875 6.55625 9.9175 5.8125 9.875 C1.76725183 8.61647835 0.50518743 6.36410883 -2 3 C-1.34 2.01 -0.68 1.02 0 0 Z " fill="#E2E48A" transform="translate(59,6)"/>
<path d="M0 0 C5.64391197 3.95976062 9.89482593 8.32012075 12 15 C12.25 18.5 12.25 18.5 12 21 C10.35 21.66 8.7 22.32 7 23 C7.495 21.515 7.495 21.515 8 20 C8.66 20 9.32 20 10 20 C9.27202257 17.77238907 8.53567463 15.5482631 7.78515625 13.328125 C7.19500061 11.57821078 6.62398602 9.82182286 6.0625 8.0625 C4.73329786 5.48228408 3.67431486 5.02253215 1 4 C-0.33333333 3.33333333 -1.66666667 2.66666667 -3 2 C-3 1.34 -3 0.68 -3 0 C-10.91253 -1.7108173 -19.06695918 -1.41031837 -27 0 C-26 -2 -26 -2 -23.0625 -3.125 C-14.70016475 -5.24551037 -7.38907101 -4.51332445 0 0 Z " fill="#F2C404" transform="translate(91,11)"/>
<path d="M0 0 C0.66 0.33 1.32 0.66 2 1 C2.25727012 4.35262169 2.47567367 7.70672493 2.6875 11.0625 C2.76033203 12.00544922 2.83316406 12.94839844 2.90820312 13.91992188 C3.26006403 19.86016189 2.83802638 23.739802 0 29 C-0.99 29 -1.98 29 -3 29 C-4.76462683 32.08809695 -5 33.23312136 -5 37 C-9.75 36.25 -9.75 36.25 -12 34 C-6.25 29 -6.25 29 -4 29 C-3.79503906 28.31292969 -3.59007813 27.62585938 -3.37890625 26.91796875 C-3.10949219 26.01691406 -2.84007813 25.11585937 -2.5625 24.1875 C-2.29566406 23.29417969 -2.02882813 22.40085937 -1.75390625 21.48046875 C-1.19612127 19.64526945 -0.60655425 17.81966274 0 16 C0.07051114 13.26134713 0.09357765 10.54972412 0.0625 7.8125 C0.05798828 7.06291016 0.05347656 6.31332031 0.04882812 5.54101562 C0.03706354 3.69397617 0.01912865 1.84697787 0 0 Z " fill="#F2A01A" transform="translate(71,27)"/>
<path d="M0 0 C12.54 0 25.08 0 38 0 C37.67 0.99 37.34 1.98 37 3 C37 2.34 37 1.68 37 1 C29.41 1 21.82 1 14 1 C13.67 1.99 13.34 2.98 13 4 C9.12137916 5.39044898 6.13537997 6 2 6 C2 5.01 2 4.02 2 3 C1.01 2.67 0.02 2.34 -1 2 C-0.67 1.34 -0.34 0.68 0 0 Z " fill="#F3F2F2" transform="translate(52,0)"/>
<path d="M0 0 C0 0.33 0 0.66 0 1 C-5.28 0.67 -10.56 0.34 -16 0 C-16 0.66 -16 1.32 -16 2 C-15.34 2.33 -14.68 2.66 -14 3 C-14 3.66 -14 4.32 -14 5 C-11.69 5 -9.38 5 -7 5 C-7 5.66 -7 6.32 -7 7 C-10.63 7.66 -14.26 8.32 -18 9 C-18.66 7.35 -19.32 5.7 -20 4 C-22.04105639 3.11306697 -22.04105639 3.11306697 -24 3 C-23.67 2.01 -23.34 1.02 -23 0 C-16.08655329 -3.45672336 -6.98592742 -3.02094159 0 0 Z " fill="#FCDC0F" transform="translate(88,11)"/>
<path d="M0 0 C10.55808656 -0.3690205 10.55808656 -0.3690205 15 2 C15 3.32 15 4.64 15 6 C12.73044814 6.22185844 10.45926245 6.42705515 8.1875 6.625 C6.29064453 6.79902344 6.29064453 6.79902344 4.35546875 6.9765625 C1 7 1 7 -2 5 C-1.34 3.35 -0.68 1.7 0 0 Z " fill="#FDEE05" transform="translate(52,79)"/>
<path d="M0 0 C0.0270043 1.45823212 0.04639787 2.91660675 0.0625 4.375 C0.07410156 5.18710937 0.08570312 5.99921875 0.09765625 6.8359375 C0 9 0 9 -1 11 C-2.32 11 -3.64 11 -5 11 C-5 11.99 -5 12.98 -5 14 C-3.02 13.34 -1.04 12.68 1 12 C1.33 12.66 1.66 13.32 2 14 C-0.90600261 15.25664978 -2.79604584 16 -6 16 C-6.1953125 13.98177083 -6.390625 11.96354167 -6.5859375 9.9453125 C-6.86374749 7.77331755 -6.86374749 7.77331755 -9 6 C-8.875 4 -8.875 4 -8 2 C-5.06004981 -0.02755186 -3.72295997 0 0 0 Z " fill="#F5A114" transform="translate(79,20)"/>
<path d="M0 0 C2.76420967 2.05986779 3.9991944 3.89206409 5.0625 7.1484375 C5.0625 10.14759083 4.68501286 11.60444725 3.0625 14.0859375 C2.0625 12.0859375 2.0625 12.0859375 2.25 9.1484375 C2.4020885 6.0516222 2.4020885 6.0516222 0.37890625 4.421875 C-3.81251375 2.00456363 -8.25010678 2.47341707 -12.9375 3.0859375 C-15.89509062 4.15511345 -18.22609788 5.44886452 -20.9375 7.0859375 C-20.375 4.7734375 -20.375 4.7734375 -18.9375 2.0859375 C-13.36052736 -1.28348347 -6.15096101 -2.90186467 0 0 Z " fill="#A3D140" transform="translate(58.9375,39.9140625)"/>
<path d="M0 0 C1.98 0 3.96 0 6 0 C6.99 3.63 7.98 7.26 9 11 C4.82412255 12.39195915 2.86525224 10.82323219 -1 9 C-1 8.01 -1 7.02 -1 6 C-0.34 6 0.32 6 1 6 C0.67 4.02 0.34 2.04 0 0 Z " fill="#F2A41D" transform="translate(41,68)"/>
<path d="M0 0 C-0.33 1.98 -0.66 3.96 -1 6 C0.98 6 2.96 6 5 6 C5 4.35 5 2.7 5 1 C6.65 0.34 8.3 -0.32 10 -1 C10.86174396 1.41288308 11.1225878 2.63427974 10.296875 5.09765625 C9 7 9 7 6.9765625 7.57421875 C5.81253906 7.63029297 5.81253906 7.63029297 4.625 7.6875 C1.61571339 7.86362881 -1.09242366 8.18348884 -4 9 C-3.34 7.68 -2.68 6.36 -2 5 C-3.32 5 -4.64 5 -6 5 C-6 3.35 -6 1.7 -6 0 C-3 -1 -3 -1 0 0 Z " fill="#8AC137" transform="translate(47,32)"/>
<path d="M0 0 C0 3.96 0 7.92 0 12 C-1.953125 10.50260417 -3.90625 9.00520833 -5.859375 7.5078125 C-7.84722603 6.10761086 -9.79843386 5.02144735 -12 4 C-8.07829422 -0.09996514 -5.68430095 -0.10526483 0 0 Z " fill="#6CB037" transform="translate(67,17)"/>
<path d="M0 0 C2.68541146 1.0070293 4.46810015 1.90560015 6.5 3.9375 C6.5 5.2575 6.5 6.5775 6.5 7.9375 C5.84 7.9375 5.18 7.9375 4.5 7.9375 C4.17 8.5975 3.84 9.2575 3.5 9.9375 C3.5 8.2875 3.5 6.6375 3.5 4.9375 C2.84 6.9175 2.18 8.8975 1.5 10.9375 C-0.4375 10.625 -0.4375 10.625 -2.5 9.9375 C-2.83 8.9475 -3.16 7.9575 -3.5 6.9375 C-4.99985609 5.27039654 -4.99985609 5.27039654 -6.5 3.9375 C-3.21269488 -0.08031737 -3.21269488 -0.08031737 0 0 Z " fill="#6EB537" transform="translate(55.5,42.0625)"/>
<path d="M0 0 C0.65226563 0.13277344 1.30453125 0.26554687 1.9765625 0.40234375 C6.6408287 1.34482822 11.29868454 2.25768703 16 3 C15.01 3.495 15.01 3.495 14 4 C14 7.63 14 11.26 14 15 C13.67 15 13.34 15 13 15 C12.67 11.37 12.34 7.74 12 4 C11.01 4.99 10.02 5.98 9 7 C6.24114506 7.45086345 3.81982959 7.18192449 1 7 C0 6 0 6 -0.0625 2.9375 C-0.041875 1.968125 -0.02125 0.99875 0 0 Z " fill="#62AD58" transform="translate(7,61)"/>
<path d="M0 0 C6.75 -0.125 6.75 -0.125 9 1 C9 1.66 9 2.32 9 3 C9.66 3 10.32 3 11 3 C11 3.66 11 4.32 11 5 C10.195625 5.28875 9.39125 5.5775 8.5625 5.875 C5.8673532 6.73262568 5.8673532 6.73262568 5 9 C4.01 9 3.02 9 2 9 C1.67 9.99 1.34 10.98 1 12 C0.67 12 0.34 12 0 12 C0 8.04 0 4.08 0 0 Z " fill="#67B13F" transform="translate(27,19)"/>
<path d="M0 0 C2.9375 1.625 2.9375 1.625 5 4 C5.3125 7.25 5.3125 7.25 5 10 C3.68 10 2.36 10 1 10 C1.33 7.69 1.66 5.38 2 3 C1.34 3 0.68 3 0 3 C-0.33 5.97 -0.66 8.94 -1 12 C-1.33 12 -1.66 12 -2 12 C-2 8.7 -2 5.4 -2 2 C-3.32 2 -4.64 2 -6 2 C-6 4.64 -6 7.28 -6 10 C-6.33 10 -6.66 10 -7 10 C-7 7.69 -7 5.38 -7 3 C-8.98 3.99 -8.98 3.99 -11 5 C-10.6875 3.0625 -10.6875 3.0625 -10 1 C-6.39427296 -0.20190901 -3.7897565 -0.32670315 0 0 Z " fill="#E99A09" transform="translate(81,18)"/>
<path d="M0 0 C0.33 0 0.66 0 1 0 C1.33 4.95 1.66 9.9 2 15 C5.3 15 8.6 15 12 15 C12.33 14.01 12.66 13.02 13 12 C14 13 14 13 14.0625 15.5625 C14.041875 16.366875 14.02125 17.17125 14 18 C13.67 17.34 13.34 16.68 13 16 C12.34 16.33 11.68 16.66 11 17 C8.11629667 17.07194869 5.25760336 17.09291708 2.375 17.0625 C1.57320313 17.05798828 0.77140625 17.05347656 -0.0546875 17.04882812 C-2.03649006 17.03703168 -4.01825433 17.01909605 -6 17 C-6 15.35 -6 13.7 -6 12 C-4.02 12 -2.04 12 0 12 C0 8.04 0 4.08 0 0 Z " fill="#BFD3BF" transform="translate(6,52)"/>
<path d="M0 0 C0 1.32 0 2.64 0 4 C-0.99 4.33 -1.98 4.66 -3 5 C-2.67 5.66 -2.34 6.32 -2 7 C-4.64 7 -7.28 7 -10 7 C-11.125 3.25 -11.125 3.25 -10 1 C-6.52674819 -0.1577506 -3.63932552 -0.06866652 0 0 Z " fill="#1BA346" transform="translate(33,70)"/>
<path d="M0 0 C7.20926451 0.18023161 11.20810607 5.20810607 16 10 C17.32 10.66 18.64 11.32 20 12 C16.37 12.33 12.74 12.66 9 13 C9.33 11.35 9.66 9.7 10 8 C9.67 7.01 9.34 6.02 9 5 C5.62182575 4.15545644 3.32534757 3.89155081 0 5 C0 3.35 0 1.7 0 0 Z " fill="#A7CB46" transform="translate(47,5)"/>
<path d="M0 0 C0.99 0.33 1.98 0.66 3 1 C3.6875 3.0625 3.6875 3.0625 4 5 C5.98 5 7.96 5 10 5 C10 6.32 10 7.64 10 9 C2.375 10.25 2.375 10.25 -1 8 C-1.25 4.4375 -1.25 4.4375 -1 1 C-0.67 0.67 -0.34 0.34 0 0 Z " fill="#3DA945" transform="translate(49,57)"/>
<path d="M0 0 C2.98319516 1.6194488 4.95345269 2.9431849 7.125 5.59375 C11.06659003 8.89268948 13.85301912 8.5827148 18.8125 8.3125 C19.60076172 8.28994141 20.38902344 8.26738281 21.20117188 8.24414062 C23.13493929 8.18554161 25.06772167 8.09586827 27 8 C25 10 25 10 22.84521484 10.22705078 C21.97590332 10.21657715 21.1065918 10.20610352 20.2109375 10.1953125 C19.26992188 10.18886719 18.32890625 10.18242188 17.359375 10.17578125 C16.37453125 10.15902344 15.3896875 10.14226562 14.375 10.125 C13.38242187 10.11597656 12.38984375 10.10695313 11.3671875 10.09765625 C8.91121866 10.07404116 6.45572832 10.04110799 4 10 C2.66666667 6.66666667 1.33333333 3.33333333 0 0 Z " fill="#F3EAD9" transform="translate(43,79)"/>
<path d="M0 0 C0.21398438 0.64453125 0.42796875 1.2890625 0.6484375 1.953125 C1.8473523 4.27839115 1.8473523 4.27839115 4.6015625 4.609375 C5.59929688 4.65578125 6.59703125 4.7021875 7.625 4.75 C9.12933594 4.83507812 9.12933594 4.83507812 10.6640625 4.921875 C11.43492188 4.94765625 12.20578125 4.9734375 13 5 C13 5.33 13 5.66 13 6 C9.70835171 6.02895225 6.41673601 6.0467823 3.125 6.0625 C2.18785156 6.07087891 1.25070313 6.07925781 0.28515625 6.08789062 C-1.05869141 6.09272461 -1.05869141 6.09272461 -2.4296875 6.09765625 C-3.67081299 6.10551147 -3.67081299 6.10551147 -4.93701172 6.11352539 C-7 6 -7 6 -9 5 C-9 4.01 -9 3.02 -9 2 C-3.375 0 -3.375 0 0 0 Z " fill="#C0C3C5" transform="translate(20,73)"/>
<path d="M0 0 C1.61848471 4.51087352 -0.01058834 7.43363104 -1.83203125 11.6484375 C-3.22485918 14.45272651 -4.34791937 16.28394783 -7 18 C-10.25 18.25 -10.25 18.25 -13 18 C-12.61328125 17.55269531 -12.2265625 17.10539062 -11.828125 16.64453125 C-10.21215698 14.76856837 -8.60517938 12.88519838 -7 11 C-6.278125 10.154375 -5.55625 9.30875 -4.8125 8.4375 C-2.82162969 5.76012268 -1.40480894 3.02033923 0 0 Z " fill="#FAEABF" transform="translate(107,44)"/>
<path d="M0 0 C0.33 0 0.66 0 1 0 C1.02578125 0.82242187 1.0515625 1.64484375 1.078125 2.4921875 C1.42461262 9.31169378 2.29968342 14.85447179 5.16015625 21.07421875 C6 23 6 23 6 25 C5.01 25.33 4.02 25.66 3 26 C2.01 25.34 1.02 24.68 0 24 C-0.34057617 21.56982422 -0.34057617 21.56982422 -0.29296875 18.5546875 C-0.28330078 17.47832031 -0.27363281 16.40195312 -0.26367188 15.29296875 C-0.23853516 14.16503906 -0.21339844 13.03710938 -0.1875 11.875 C-0.17396484 10.73933594 -0.16042969 9.60367188 -0.14648438 8.43359375 C-0.11104319 5.62192613 -0.06163517 2.81119583 0 0 Z " fill="#DAEED1" transform="translate(0,27)"/>
<path d="M0 0 C0.66 0.99 1.32 1.98 2 3 C1.34 3 0.68 3 0 3 C0 3.99 0 4.98 0 6 C-0.99 6.495 -0.99 6.495 -2 7 C-1.67 7.99 -1.34 8.98 -1 10 C-0.96045766 12.33299825 -0.95598268 14.66708189 -1 17 C-1.66 17.33 -2.32 17.66 -3 18 C-4.13350534 20.01669827 -4.13350534 20.01669827 -5 22 C-5.3690205 8.3667426 -5.3690205 8.3667426 -3 2 C-2.01 2 -1.02 2 0 2 C0 1.34 0 0.68 0 0 Z " fill="#8DBF54" transform="translate(6,18)"/>
<path d="M0 0 C12.66970387 0.77904328 12.66970387 0.77904328 18 3 C15.05613377 4.47193312 12.62609964 3.84936173 9.375 3.5625 C8.18648437 3.46066406 6.99796875 3.35882813 5.7734375 3.25390625 C4.85820313 3.17011719 3.94296875 3.08632812 3 3 C2.34 4.65 1.68 6.3 1 8 C-1.31 6.35 -3.62 4.7 -6 3 C-3.50907189 1.75453595 -2.58919267 2.2232422 0 3 C0 2.01 0 1.02 0 0 Z " fill="#F1CA44" transform="translate(49,76)"/>
<path d="M0 0 C0 3 0 3 -2.375 5.6875 C-5 8 -5 8 -7 8 C-7.33 9.32 -7.66 10.64 -8 12 C-10.7839183 10.60804085 -10.97898997 8.84424221 -12 6 C-7.375 3 -7.375 3 -4 3 C-4 2.34 -4 1.68 -4 1 C-2.68 0.67 -1.36 0.34 0 0 Z " fill="#6EB73E" transform="translate(44,37)"/>
<path d="M0 0 C2.4375 0.8125 2.4375 0.8125 5 2 C5.33 2.99 5.66 3.98 6 5 C3.8125 5.6875 3.8125 5.6875 1 6 C0.29359375 5.51660156 -0.4128125 5.03320312 -1.140625 4.53515625 C-5.03371382 2.4450143 -8.2217921 2.63077026 -12.5625 2.75 C-13.31724609 2.75515625 -14.07199219 2.7603125 -14.84960938 2.765625 C-18.38779827 2.81550255 -21.59603786 3.054376 -25 4 C-24.67 3.01 -24.34 2.02 -24 1 C-23.30849854 1.00523682 -22.61699707 1.01047363 -21.90454102 1.01586914 C-18.79053648 1.036575 -15.67654639 1.04963963 -12.5625 1.0625 C-11.47388672 1.07087891 -10.38527344 1.07925781 -9.26367188 1.08789062 C-7.71196289 1.09272461 -7.71196289 1.09272461 -6.12890625 1.09765625 C-5.17056885 1.10289307 -4.21223145 1.10812988 -3.22485352 1.11352539 C-1.02714661 1.2505313 -1.02714661 1.2505313 0 0 Z " fill="#F8F5D6" transform="translate(90,0)"/>
<path d="M0 0 C0.66 0.33 1.32 0.66 2 1 C2 1.99 2 2.98 2 4 C2.66 4 3.32 4 4 4 C2.25 8.875 2.25 8.875 0 10 C0 9.34 0 8.68 0 8 C-2.97 8.66 -5.94 9.32 -9 10 C-9 8.02 -9 6.04 -9 4 C-7.68 3.67 -6.36 3.34 -5 3 C-4.67 3.99 -4.34 4.98 -4 6 C-3.01 6.33 -2.02 6.66 -1 7 C-0.67 4.69 -0.34 2.38 0 0 Z " fill="#5EAF39" transform="translate(58,46)"/>
<path d="M0 0 C1.0625 1.875 1.0625 1.875 2 4 C1.67 4.66 1.34 5.32 1 6 C-5.63616588 7.25210677 -12.2673537 7.10098969 -19 7 C-19 6.67 -19 6.34 -19 6 C-17.87980469 5.73445313 -16.75960937 5.46890625 -15.60546875 5.1953125 C-14.13273662 4.83885504 -12.66008449 4.48206692 -11.1875 4.125 C-10.08051758 3.86396484 -10.08051758 3.86396484 -8.95117188 3.59765625 C-5.50282963 2.75507489 -2.98071638 1.98714425 0 0 Z " fill="#C0BCAC" transform="translate(93,62)"/>
<path d="M0 0 C3 1 3 1 4.1875 2.625 C5.27499354 5.80382728 5.1282071 8.66661533 5 12 C3.68 12 2.36 12 1 12 C0.86722656 11.37351562 0.73445313 10.74703125 0.59765625 10.1015625 C0.42105469 9.28429688 0.24445313 8.46703125 0.0625 7.625 C-0.19853516 6.40683594 -0.19853516 6.40683594 -0.46484375 5.1640625 C-0.92330693 2.970537 -0.92330693 2.970537 -2 1 C-1.34 0.67 -0.68 0.34 0 0 Z " fill="#FCDB0C" transform="translate(102,20)"/>
<path d="M0 0 C0.99 0.33 1.98 0.66 3 1 C2.67 3.31 2.34 5.62 2 8 C3.32 8 4.64 8 6 8 C6 8.66 6 9.32 6 10 C7.65 9.67 9.3 9.34 11 9 C11 9.99 11 10.98 11 12 C6.39790775 12.17700355 4.21629134 12.10814567 0 10 C0 6.7 0 3.4 0 0 Z " fill="#FCCD0C" transform="translate(80,20)"/>
<path d="M0 0 C2.97 0 5.94 0 9 0 C8.34 0.66 7.68 1.32 7 2 C10.3 2.99 13.6 3.98 17 5 C17 5.33 17 5.66 17 6 C15.10388566 5.85786703 13.20811606 5.71113093 11.3125 5.5625 C10.25675781 5.48128906 9.20101562 5.40007812 8.11328125 5.31640625 C5.34913703 5.03548319 2.71054259 4.59843148 0 4 C0 2.68 0 1.36 0 0 Z " fill="#EEE8CD" transform="translate(49,72)"/>
<path d="M0 0 C-7.65411399 2.99729685 -13.90279979 3.15475536 -22 2 C-22 1.34 -22 0.68 -22 0 C-19.08365878 -0.19502282 -16.16720455 -0.38129328 -13.25 -0.5625 C-12.0125 -0.64661133 -12.0125 -0.64661133 -10.75 -0.73242188 C-9.95078125 -0.78076172 -9.1515625 -0.82910156 -8.328125 -0.87890625 C-7.5949707 -0.9260376 -6.86181641 -0.97316895 -6.10644531 -1.02172852 C-3.91642774 -0.99913793 -2.09512813 -0.61487456 0 0 Z " fill="#E3B95D" transform="translate(90,65)"/>
<path d="M0 0 C0.66 0.33 1.32 0.66 2 1 C2 2.65 2 4.3 2 6 C-1.63 6 -5.26 6 -9 6 C-9.33 6.66 -9.66 7.32 -10 8 C-10.33 6.02 -10.66 4.04 -11 2 C-10.34 2 -9.68 2 -9 2 C-9 2.66 -9 3.32 -9 4 C-4.545 3.01 -4.545 3.01 0 2 C0 1.34 0 0.68 0 0 Z " fill="#75B05A" transform="translate(58,66)"/>
<path d="M0 0 C2.31 0 4.62 0 7 0 C7 0.66 7 1.32 7 2 C7.66 2.33 8.32 2.66 9 3 C9 3.99 9 4.98 9 6 C12.465 5.505 12.465 5.505 16 5 C15.01 6.32 14.02 7.64 13 9 C9.4124787 7.66749209 6.1635377 6.169283 3 4 C3 3.34 3 2.68 3 2 C2.01 1.67 1.02 1.34 0 1 C0 0.67 0 0.34 0 0 Z " fill="#EFF1EE" transform="translate(45,0)"/>
<path d="M0 0 C0.33 0 0.66 0 1 0 C1.09765625 6.15234375 1.09765625 6.15234375 1 8 C0 9 0 9 -2.94140625 9.09765625 C-4.73384766 9.08025391 -4.73384766 9.08025391 -6.5625 9.0625 C-8.35880859 9.04896484 -8.35880859 9.04896484 -10.19140625 9.03515625 C-11.11824219 9.02355469 -12.04507812 9.01195313 -13 9 C-13.33 7.35 -13.66 5.7 -14 4 C-13.01 5.485 -13.01 5.485 -12 7 C-8.91634129 7.2502157 -8.91634129 7.2502157 -6 7 C-5.67 6.34 -5.34 5.68 -5 5 C-3.35 5 -1.7 5 0 5 C0 3.35 0 1.7 0 0 Z " fill="#28994D" transform="translate(35,69)"/>
<path d="M0 0 C0.66 0.33 1.32 0.66 2 1 C2.05819424 4.24992446 2.09366116 7.49971435 2.125 10.75 C2.14175781 11.67039062 2.15851563 12.59078125 2.17578125 13.5390625 C2.18222656 14.42851563 2.18867187 15.31796875 2.1953125 16.234375 C2.20578613 17.05131836 2.21625977 17.86826172 2.22705078 18.70996094 C1.97194889 21.28292411 1.43171587 22.85034435 0 25 C-0.99 25.33 -1.98 25.66 -3 26 C-2.7834375 25.46375 -2.566875 24.9275 -2.34375 24.375 C0.54501849 16.24365165 0.28475021 8.50032106 0 0 Z " fill="#E9AE33" transform="translate(71,27)"/>
<path d="M0 0 C4.49596251 3.03781251 6.34029182 5.83646342 8 11 C7.6875 13.4375 7.6875 13.4375 7 15 C6.4121875 13.2984375 6.4121875 13.2984375 5.8125 11.5625 C4.41389118 7.79660949 4.41389118 7.79660949 1.3125 7.0625 C0.1678125 7.0315625 0.1678125 7.0315625 -1 7 C-0.67 4.69 -0.34 2.38 0 0 Z " fill="#F6E53D" transform="translate(100,13)"/>
<path d="M0 0 C1.22589844 0.01353516 1.22589844 0.01353516 2.4765625 0.02734375 C3.41628906 0.04474609 3.41628906 0.04474609 4.375 0.0625 C0.625 2.0625 0.625 2.0625 -1.625 2.0625 C-1.625 3.0525 -1.625 4.0425 -1.625 5.0625 C-0.965 5.3925 -0.305 5.7225 0.375 6.0625 C-5.375 6.1875 -5.375 6.1875 -7.625 5.0625 C-7.25 3.125 -7.25 3.125 -6.625 1.0625 C-4.21954362 -0.14022819 -2.67503047 -0.03821472 0 0 Z " fill="#D5D7D8" transform="translate(12.625,72.9375)"/>
<path d="M0 0 C1.32 0 2.64 0 4 0 C4.33 1.65 4.66 3.3 5 5 C4.34 5 3.68 5 3 5 C3 5.99 3 6.98 3 8 C3.99 8.33 4.98 8.66 6 9 C3.6875 9.625 3.6875 9.625 1 10 C0.01 9.34 -0.98 8.68 -2 8 C-1.34 8 -0.68 8 0 8 C0 5.36 0 2.72 0 0 Z " fill="#D7E1C9" transform="translate(37,69)"/>
<path d="M0 0 C2.97 0.99 5.94 1.98 9 3 C9 3.66 9 4.32 9 5 C7.68 5 6.36 5 5 5 C4.67 5.99 4.34 6.98 4 8 C3.01 8.33 2.02 8.66 1 9 C0.67 6.03 0.34 3.06 0 0 Z " fill="#D4D6B5" transform="translate(59,62)"/>
<path d="M0 0 C2.64 0 5.28 0 8 0 C7.67 0.99 7.34 1.98 7 3 C6.01 3 5.02 3 4 3 C3.34 4.32 2.68 5.64 2 7 C0.68 6.34 -0.64 5.68 -2 5 C-1.34 3.35 -0.68 1.7 0 0 Z " fill="#FBD308" transform="translate(52,79)"/>
<path d="M0 0 C1.11375 0.9590625 1.11375 0.9590625 2.25 1.9375 C4.7111121 3.78333407 6.03466926 4.56069174 9 5 C9 6.32 9 7.64 9 9 C6.03 8.01 3.06 7.02 0 6 C0 4.02 0 2.04 0 0 Z " fill="#319D40" transform="translate(8,55)"/>
<path d="M0 0 C0.33 0 0.66 0 1 0 C2.7879537 6.8165735 3.23668569 12.96517526 3 20 C2.566875 19.1028125 2.566875 19.1028125 2.125 18.1875 C0.95257974 15.80672208 0.95257974 15.80672208 -1 13 C-0.9765625 9.86328125 -0.9765625 9.86328125 -0.625 6.3125 C-0.51414062 5.13300781 -0.40328125 3.95351563 -0.2890625 2.73828125 C-0.19367188 1.83464844 -0.09828125 0.93101563 0 0 Z " fill="#87B84C" transform="translate(67,19)"/>
<path d="M0 0 C1.32 0 2.64 0 4 0 C4 2.97 4 5.94 4 9 C2.68 9 1.36 9 0 9 C0 6.03 0 3.06 0 0 Z " fill="#FED216" transform="translate(75,20)"/>
<path d="M0 0 C2 1 4 2 6 3 C6.625 5.5625 6.625 5.5625 7 8 C2.62140745 7.49477778 0.18348776 4.82172778 -3 2 C-2.01 1.34 -1.02 0.68 0 0 Z " fill="#FDE20B" transform="translate(94,10)"/>
<path d="M0 0 C1.98 0 3.96 0 6 0 C6.33 1.98 6.66 3.96 7 6 C4.03 5.505 4.03 5.505 1 5 C0.67 3.35 0.34 1.7 0 0 Z " fill="#AE7C34" transform="translate(41,68)"/>
<path d="M0 0 C2.3381615 0.29758419 4.67182036 0.63239269 7 1 C7.66 1 8.32 1 9 1 C9 1.66 9 2.32 9 3 C5.5647952 5.29013653 4.014669 5.17842973 0 5 C0 4.34 0 3.68 0 3 C-1.65 3 -3.3 3 -5 3 C-4.360625 2.690625 -3.72125 2.38125 -3.0625 2.0625 C-1.06389179 1.1654837 -1.06389179 1.1654837 0 0 Z " fill="#4BA74A" transform="translate(49,65)"/>
<path d="M0 0 C0.33 0.99 0.66 1.98 1 3 C-1.90600261 4.25664978 -3.79604584 5 -7 5 C-7 5.66 -7 6.32 -7 7 C-7.66 7 -8.32 7 -9 7 C-9.33 5.35 -9.66 3.7 -10 2 C-9.34 1.67 -8.68 1.34 -8 1 C-8 1.66 -8 2.32 -8 3 C-7.236875 2.505 -6.47375 2.01 -5.6875 1.5 C-3 0 -3 0 0 0 Z " fill="#F89C1C" transform="translate(91,58)"/>
<path d="M0 0 C0.33 0 0.66 0 1 0 C1.20413361 5.73842251 1.27141454 10.60539047 -1 16 C-1.66 16 -2.32 16 -3 16 C-3.66 17.32 -4.32 18.64 -5 20 C-5.33 19.01 -5.66 18.02 -6 17 C-5.02238819 15.65156992 -4.04367514 14.30392044 -3.05859375 12.9609375 C-0.92413889 9.00707646 -0.59569914 4.40503837 0 0 Z " fill="#F1A013" transform="translate(102,32)"/>
<path d="M0 0 C3.375 -0.125 3.375 -0.125 7 0 C7.66 0.66 8.32 1.32 9 2 C6.69 2.66 4.38 3.32 2 4 C2 6.31 2 8.62 2 11 C1.01 11.495 1.01 11.495 0 12 C0 8.04 0 4.08 0 0 Z " fill="#6FB236" transform="translate(27,19)"/>
<path d="M0 0 C0.33 0 0.66 0 1 0 C1 1.65 1 3.3 1 5 C1.598125 4.34 2.19625 3.68 2.8125 3 C5 1 5 1 8 1 C7.3125 3.4375 7.3125 3.4375 6 6 C3.375 6.8125 3.375 6.8125 1 7 C1.33 7.99 1.66 8.98 2 10 C1.34 10.66 0.68 11.32 0 12 C0 8.04 0 4.08 0 0 Z " fill="#FDC517" transform="translate(79,41)"/>
<path d="M0 0 C1.17079102 0.01160156 1.17079102 0.01160156 2.36523438 0.0234375 C3.53022461 0.01183594 3.53022461 0.01183594 4.71875 0 C8.62825605 0.01346944 10.60720469 0.05975105 13.92773438 2.2734375 C13.92773438 2.9334375 13.92773438 3.5934375 13.92773438 4.2734375 C12.89648438 3.9434375 11.86523438 3.6134375 10.80273438 3.2734375 C4.61451182 1.68728659 -1.73417891 2.11320497 -8.07226562 2.2734375 C-5.45410824 -0.34471989 -3.56758224 0.01231262 0 0 Z " fill="#E2F0BD" transform="translate(34.072265625,-0.2734375)"/>
<path d="M0 0 C0.66 0 1.32 0 2 0 C2 3.3 2 6.6 2 10 C1.01 9.67 0.02 9.34 -1 9 C-1.33 6.69 -1.66 4.38 -2 2 C-1.34 2 -0.68 2 0 2 C0 1.34 0 0.68 0 0 Z " fill="#6DB73B" transform="translate(64,38)"/>
<path d="M0 0 C1.31571603 0.2547514 2.62760376 0.52934141 3.9375 0.8125 C4.66839844 0.96332031 5.39929688 1.11414063 6.15234375 1.26953125 C6.76207031 1.51058594 7.37179688 1.75164063 8 2 C8.33 2.99 8.66 3.98 9 5 C5.37 4.34 1.74 3.68 -2 3 C-2 4.98 -2 6.96 -2 9 C-2.99 8.01 -3.98 7.02 -5 6 C-4.34 4.68 -3.68 3.36 -3 2 C-2.01 2 -1.02 2 0 2 C0 1.34 0 0.68 0 0 Z " fill="#91C741" transform="translate(29,16)"/>
<path d="M0 0 C5.28798182 0.41474367 8.11690718 1.35224614 12 5 C9.50935112 5.68707555 7.62113708 6 5 6 C2.3125 3.5625 2.3125 3.5625 0 1 C0 0.67 0 0.34 0 0 Z " fill="#9FCD3D" transform="translate(28,3)"/>
<path d="M0 0 C0.66 0 1.32 0 2 0 C3.04976964 3.14930893 3.10131595 5.38814456 3.0625 8.6875 C3.05347656 9.68136719 3.04445313 10.67523438 3.03515625 11.69921875 C3.02355469 12.45847656 3.01195313 13.21773437 3 14 C2.87625 13.360625 2.7525 12.72125 2.625 12.0625 C2.41875 11.381875 2.2125 10.70125 2 10 C1.34 9.67 0.68 9.34 0 9 C0 6.03 0 3.06 0 0 Z " fill="#F6B90E" transform="translate(76,37)"/>
<path d="M0 0 C0.66 0 1.32 0 2 0 C1.42655063 2.86724686 1.1385485 3.8614515 -1 6 C-2.98821313 6.39764263 -4.98944339 6.73775349 -7 7 C-7 6.01 -7 5.02 -7 4 C-5.824375 3.566875 -5.824375 3.566875 -4.625 3.125 C-1.90328368 2.15087746 -1.90328368 2.15087746 0 0 Z " fill="#4AA838" transform="translate(60,56)"/>
<path d="M0 0 C0.33 0.66 0.66 1.32 1 2 C0.34 2.66 -0.32 3.32 -1 4 C-1 4.66 -1 5.32 -1 6 C-0.34 6 0.32 6 1 6 C1 6.66 1 7.32 1 8 C-3.75 7.25 -3.75 7.25 -6 5 C-4.02 3.35 -2.04 1.7 0 0 Z " fill="#D2A639" transform="translate(65,56)"/>
<path d="M0 0 C0.99 0 1.98 0 3 0 C3 3.3 3 6.6 3 10 C2.34 10 1.68 10 1 10 C0.67 6.7 0.34 3.4 0 0 Z " fill="#F9BD0F" transform="translate(104,32)"/>
<path d="M0 0 C4.99455809 1.27767765 7.61297811 3.12911784 11 7 C11.33 7.66 11.66 8.32 12 9 C9.7897045 7.97379138 7.92682503 6.94283206 6 5.4375 C3.95556194 3.96806014 2.45477972 3.43835352 0 3 C0 2.01 0 1.02 0 0 Z " fill="#F6EB45" transform="translate(88,4)"/>
<path d="M0 0 C2.97 0.33 5.94 0.66 9 1 C8.34 2.32 7.68 3.64 7 5 C4.36 4.34 1.72 3.68 -1 3 C-0.67 2.01 -0.34 1.02 0 0 Z " fill="#FDE803" transform="translate(78,4)"/>
<path d="M0 0 C1.32 0 2.64 0 4 0 C3.67 0.99 3.34 1.98 3 3 C2.01 3 1.02 3 0 3 C0 3.99 0 4.98 0 6 C0.99 6.33 1.98 6.66 3 7 C2.34 7.66 1.68 8.32 1 9 C-0.5625 7.8125 -0.5625 7.8125 -2 6 C-1.57894737 1.57894737 -1.57894737 1.57894737 0 0 Z " fill="#F3DD3E" transform="translate(62,4)"/>
<path d="M0 0 C0.99 0 1.98 0 3 0 C2.67 2.64 2.34 5.28 2 8 C1.01 8 0.02 8 -1 8 C-1.125 2.25 -1.125 2.25 0 0 Z " fill="#7FC54A" transform="translate(55,45)"/>
<path d="M0 0 C0.37769531 0.64453125 0.75539063 1.2890625 1.14453125 1.953125 C2.86059908 4.24029762 2.86059908 4.24029762 5.69921875 4.609375 C6.68535156 4.65578125 7.67148437 4.7021875 8.6875 4.75 C9.68136719 4.80671875 10.67523438 4.8634375 11.69921875 4.921875 C12.83810547 4.96054688 12.83810547 4.96054688 14 5 C14 5.33 14 5.66 14 6 C11.87527424 6.05386629 9.75016348 6.09273071 7.625 6.125 C5.84996094 6.15980469 5.84996094 6.15980469 4.0390625 6.1953125 C1 6 1 6 -1 4 C-0.625 1.875 -0.625 1.875 0 0 Z " fill="#93BCA2" transform="translate(19,73)"/>
<path d="M0 0 C-1.41519715 2.0343459 -2.54982123 2.90410393 -4.98046875 3.421875 C-6.98176954 3.66273952 -8.9909944 3.83532741 -11 4 C-11 3.34 -11 2.68 -11 2 C-9.73392393 1.46770674 -8.46189588 0.94955456 -7.1875 0.4375 C-6.47980469 0.14746094 -5.77210937 -0.14257812 -5.04296875 -0.44140625 C-3 -1 -3 -1 0 0 Z " fill="#EBAA2E" transform="translate(95,61)"/>
<path d="M0 0 C0.99 0.33 1.98 0.66 3 1 C2.75 2.875 2.75 2.875 2 5 C-0.0625 6.25 -0.0625 6.25 -2 7 C-2.33 6.01 -2.66 5.02 -3 4 C-1.5625 1.8125 -1.5625 1.8125 0 0 Z " fill="#F2AA27" transform="translate(97,53)"/>
<path d="M0 0 C2.09749995 2.35968744 2.96905704 3.54616994 3.1875 6.75 C3.125625 7.4925 3.06375 8.235 3 9 C0.36 9.33 -2.28 9.66 -5 10 C-5.33 9.34 -5.66 8.68 -6 8 C-4.02 7.67 -2.04 7.34 0 7 C0 4.69 0 2.38 0 0 Z " fill="#FCD30B" transform="translate(98,22)"/>
<path d="M0 0 C2.5393228 3.41831915 3.3636198 5.75776898 3 10 C2.01 10.495 2.01 10.495 1 11 C0.731875 9.906875 0.46375 8.81375 0.1875 7.6875 C-0.87663739 4.38307337 -1.34654664 3.05039578 -4 1 C-2 0 -2 0 0 0 Z " fill="#FDD20D" transform="translate(85,17)"/>
<path d="M0 0 C0 1.32 0 2.64 0 4 C-2.64 4.33 -5.28 4.66 -8 5 C-3.22727273 0 -3.22727273 0 0 0 Z " fill="#329D45" transform="translate(59,62)"/>
<path d="M0 0 C0.66 0 1.32 0 2 0 C2 0.99 2 1.98 2 3 C5.63 3 9.26 3 13 3 C13 3.33 13 3.66 13 4 C9.37 4 5.74 4 2 4 C1.67 4.66 1.34 5.32 1 6 C0.67 4.02 0.34 2.04 0 0 Z " fill="#A8BE8D" transform="translate(47,68)"/>
<path d="M0 0 C1.32 0 2.64 0 4 0 C4.33 0.99 4.66 1.98 5 3 C3.68 3 2.36 3 1 3 C1 5.64 1 8.28 1 11 C0.67 11 0.34 11 0 11 C0 7.37 0 3.74 0 0 Z " fill="#49A65D" transform="translate(36,66)"/>
<path d="M0 0 C1.65 0 3.3 0 5 0 C5.33 1.32 5.66 2.64 6 4 C5.01 4.33 4.02 4.66 3 5 C2.01 4.34 1.02 3.68 0 3 C0 2.01 0 1.02 0 0 Z " fill="#DDE9DE" transform="translate(0,48)"/>
<path d="M0 0 C0.99 0.33 1.98 0.66 3 1 C2.67 2.32 2.34 3.64 2 5 C0.68 5 -0.64 5 -2 5 C-2 3.68 -2 2.36 -2 1 C-1.34 0.67 -0.68 0.34 0 0 Z " fill="#9DCB37" transform="translate(44,31)"/>
<path d="M0 0 C0.66 0.99 1.32 1.98 2 3 C1.34 3 0.68 3 0 3 C0 3.99 0 4.98 0 6 C-2 7.6875 -2 7.6875 -4 9 C-3.67 6.69 -3.34 4.38 -3 2 C-2.01 2 -1.02 2 0 2 C0 1.34 0 0.68 0 0 Z " fill="#9DC350" transform="translate(6,18)"/>
<path d="M0 0 C0.33 0.99 0.66 1.98 1 3 C-0.8125 6.1875 -0.8125 6.1875 -3 9 C-3.66 9 -4.32 9 -5 9 C-3.90931332 5.22454612 -3.0916909 2.52956528 0 0 Z " fill="#AECD6B" transform="translate(9,11)"/>
<path d="M0 0 C3.53600465 1.91135386 5.78972846 3.62642766 8 7 C7.01 7 6.02 7 5 7 C5 6.34 5 5.68 5 5 C3.68 4.67 2.36 4.34 1 4 C0.67 2.68 0.34 1.36 0 0 Z " fill="#F8E8CE" transform="translate(43,79)"/>
<path d="M0 0 C0.66 0 1.32 0 2 0 C2 1.98 2 3.96 2 6 C0.68 5.67 -0.64 5.34 -2 5 C-1.125 1.125 -1.125 1.125 0 0 Z " fill="#F6CE1C" transform="translate(72,21)"/>
<path d="M0 0 C3.37503669 1.1858237 5.64722731 2.27573689 8 5 C7.67 5.99 7.34 6.98 7 8 C5.83035398 6.8572081 4.66435444 5.71068285 3.5 4.5625 C2.8503125 3.92441406 2.200625 3.28632813 1.53125 2.62890625 C0 1 0 1 0 0 Z " fill="#FDF6B5" transform="translate(96,8)"/>
<path d="M0 0 C7.625 0.875 7.625 0.875 11 2 C10.01 2.99 9.02 3.98 8 5 C4.62496331 3.8141763 2.35277269 2.72426311 0 0 Z " fill="#EFF7CB" transform="translate(50,4)"/>
<path d="M0 0 C-0.33 0.66 -0.66 1.32 -1 2 C-2.65 1.67 -4.3 1.34 -6 1 C-6 1.66 -6 2.32 -6 3 C-6.99 3 -7.98 3 -9 3 C-9 2.01 -9 1.02 -9 0 C-5.93109813 -1.53445094 -3.29905734 -0.54984289 0 0 Z " fill="#E9A958" transform="translate(49,74)"/>
<path d="M0 0 C0.33 1.98 0.66 3.96 1 6 C-0.98 5.34 -2.96 4.68 -5 4 C-4.67 3.01 -4.34 2.02 -4 1 C-2 0 -2 0 0 0 Z " fill="#F8E020" transform="translate(69,10)"/>
<path d="M0 0 C3.37462715 0.54723683 5.08235 1.0549 8 3 C8 3.66 8 4.32 8 5 C4.20411134 4.45773019 2.52788007 2.79872437 0 0 Z " fill="#7AB030" transform="translate(32,2)"/>
<path d="M0 0 C0 1.32 0 2.64 0 4 C-1.65 4 -3.3 4 -5 4 C-5 3.01 -5 2.02 -5 1 C-2 0 -2 0 0 0 Z " fill="#EAEBF0" transform="translate(19,68)"/>
<path d="M0 0 C0.99 0.33 1.98 0.66 3 1 C2.625 3.4375 2.625 3.4375 2 6 C1.01 6.495 1.01 6.495 0 7 C-0.38133299 5.0085944 -0.71325582 3.00720923 -1 1 C-0.67 0.67 -0.34 0.34 0 0 Z " fill="#F3B229" transform="translate(102,46)"/>
<path d="M0 0 C0.99 0.33 1.98 0.66 3 1 C0.6875 3.0625 0.6875 3.0625 -2 5 C-2.99 4.67 -3.98 4.34 -5 4 C-4.34 4 -3.68 4 -3 4 C-2.67 3.01 -2.34 2.02 -2 1 C-1.34 0.67 -0.68 0.34 0 0 Z " fill="#F4B50D" transform="translate(88,43)"/>
<path d="M0 0 C0.99 0.33 1.98 0.66 3 1 C2.67 3.31 2.34 5.62 2 8 C1.34 8 0.68 8 0 8 C0 5.36 0 2.72 0 0 Z " fill="#FABE19" transform="translate(80,20)"/>
<path d="M0 0 C-0.3125 1.875 -0.3125 1.875 -1 4 C-1.99 4.66 -2.98 5.32 -4 6 C-4.33 5.34 -4.66 4.68 -5 4 C-4.67 3.01 -4.34 2.02 -4 1 C-2 0 -2 0 0 0 Z " fill="#A4CC37" transform="translate(14,10)"/>
</svg>
